<svg xmlns="http://www.w3.org/2000/svg" xmlns:xlink="http://www.w3.org/1999/xlink" width="300" zoomAndPan="magnify" viewBox="0 0 224.87999 37.5" height="50" preserveAspectRatio="xMidYMid meet" version="1.0"><defs><g/></defs><g fill="#ffffff" fill-opacity="1"><g transform="translate(10.924539, 33.135579)"><g><path d="M 18.148438 -29.339844 L 23.699219 -29.339844 C 23.109375 -29.523438 22.425781 -29.660156 21.699219 -29.75 L 19.925781 -29.75 C 19.289062 -29.660156 18.695312 -29.523438 18.148438 -29.339844 Z M 34.34375 -29.339844 L 39.894531 -29.339844 C 39.304688 -29.523438 38.667969 -29.660156 37.984375 -29.75 L 36.074219 -29.75 C 35.4375 -29.660156 34.890625 -29.523438 34.34375 -29.339844 Z M 12.601562 -29.613281 L 1.273438 -29.613281 L 1.273438 -29.339844 L 12.601562 -29.339844 Z M 12.601562 -28.203125 L 1.273438 -28.203125 L 1.273438 -27.75 L 12.601562 -27.75 Z M 15.832031 -27.75 L 26.246094 -27.75 L 25.792969 -28.203125 L 16.285156 -28.203125 C 16.101562 -28.066406 15.96875 -27.886719 15.832031 -27.75 Z M 41.941406 -28.203125 L 32.433594 -28.203125 L 31.980469 -27.75 L 42.441406 -27.75 C 42.304688 -27.886719 42.125 -28.066406 41.941406 -28.203125 Z M 12.601562 -26.613281 L 1.273438 -26.613281 L 1.273438 -26.109375 L 12.601562 -26.109375 Z M 14.648438 -26.109375 L 27.476562 -26.109375 C 27.386719 -26.292969 27.292969 -26.429688 27.15625 -26.613281 L 14.964844 -26.613281 C 14.875 -26.429688 14.738281 -26.246094 14.648438 -26.109375 Z M 30.84375 -26.109375 L 43.625 -26.109375 C 43.535156 -26.292969 43.398438 -26.429688 43.304688 -26.613281 L 31.113281 -26.613281 C 31.023438 -26.429688 30.933594 -26.246094 30.84375 -26.109375 Z M 12.601562 -25.066406 L 1.273438 -25.066406 L 1.273438 -24.519531 L 12.601562 -24.519531 Z M 13.964844 -24.519531 L 28.113281 -24.519531 C 28.023438 -24.699219 27.976562 -24.882812 27.929688 -25.066406 L 14.191406 -25.066406 C 14.101562 -24.882812 14.054688 -24.699219 13.964844 -24.519531 Z M 30.160156 -24.519531 L 44.261719 -24.519531 C 44.214844 -24.699219 44.171875 -24.882812 44.078125 -25.066406 L 30.339844 -25.066406 C 30.296875 -24.882812 30.207031 -24.699219 30.160156 -24.519531 Z M 12.601562 -23.472656 L 1.273438 -23.472656 L 1.273438 -22.925781 L 12.601562 -22.925781 Z M 28.386719 -23.472656 L 13.691406 -23.472656 L 13.554688 -22.925781 L 28.476562 -22.925781 C 28.429688 -23.109375 28.429688 -23.289062 28.386719 -23.472656 Z M 29.75 -22.925781 L 44.671875 -22.925781 L 44.535156 -23.472656 L 29.839844 -23.472656 C 29.796875 -23.289062 29.796875 -23.109375 29.75 -22.925781 Z M 12.601562 -21.878906 L 1.273438 -21.878906 L 1.273438 -21.289062 L 12.601562 -21.289062 Z M 13.28125 -21.289062 L 28.75 -21.289062 C 28.703125 -21.472656 28.703125 -21.652344 28.660156 -21.878906 L 13.375 -21.878906 C 13.375 -21.652344 13.328125 -21.472656 13.28125 -21.289062 Z M 44.808594 -21.878906 L 29.523438 -21.878906 C 29.523438 -21.652344 29.476562 -21.472656 29.476562 -21.289062 L 44.851562 -21.289062 C 44.851562 -21.472656 44.808594 -21.652344 44.808594 -21.878906 Z M 12.601562 -20.332031 L 1.273438 -20.332031 L 1.273438 -19.695312 L 12.601562 -19.695312 Z M 13.191406 -19.695312 L 28.839844 -19.695312 C 28.839844 -19.878906 28.839844 -20.105469 28.796875 -20.332031 L 13.238281 -20.332031 C 13.191406 -20.105469 13.191406 -19.878906 13.191406 -19.695312 Z M 29.339844 -19.695312 L 44.988281 -19.695312 C 44.988281 -19.878906 44.945312 -20.105469 44.945312 -20.332031 L 29.386719 -20.332031 C 29.339844 -20.105469 29.339844 -19.878906 29.339844 -19.695312 Z M 1.273438 -18.058594 L 45.035156 -18.058594 L 45.035156 -18.742188 L 1.273438 -18.742188 Z M 13.601562 -17.195312 L 1.273438 -17.195312 L 1.273438 -16.46875 L 13.011719 -16.46875 C 13.191406 -16.738281 13.375 -16.96875 13.601562 -17.195312 Z M 29.796875 -17.195312 L 16.738281 -17.195312 C 16.96875 -16.96875 17.148438 -16.738281 17.332031 -16.46875 L 29.203125 -16.46875 C 29.339844 -16.738281 29.566406 -16.96875 29.796875 -17.195312 Z M 33.617188 -16.46875 L 45.035156 -16.46875 L 45.035156 -17.195312 L 33.070312 -17.195312 C 33.296875 -16.96875 33.480469 -16.738281 33.617188 -16.46875 Z M 12.691406 -15.601562 L 1.273438 -15.601562 L 1.273438 -14.828125 L 12.601562 -14.828125 C 12.601562 -15.101562 12.644531 -15.375 12.691406 -15.601562 Z M 28.929688 -15.601562 L 17.648438 -15.601562 L 17.785156 -14.828125 L 28.886719 -14.828125 L 28.886719 -15.011719 C 28.886719 -15.195312 28.929688 -15.421875 28.929688 -15.601562 Z M 33.933594 -15.011719 L 33.933594 -14.828125 L 45.035156 -14.828125 L 45.035156 -15.601562 L 33.890625 -15.601562 C 33.890625 -15.421875 33.933594 -15.195312 33.933594 -15.011719 Z M 12.601562 -14.054688 L 1.273438 -14.054688 L 1.273438 -13.238281 L 12.601562 -13.238281 Z M 28.886719 -14.054688 L 17.785156 -14.054688 L 17.785156 -13.238281 L 28.886719 -13.238281 Z M 45.035156 -14.054688 L 33.933594 -14.054688 L 33.933594 -13.238281 L 45.035156 -13.238281 Z M 12.601562 -12.464844 L 1.273438 -12.464844 L 1.273438 -11.644531 L 12.601562 -11.644531 Z M 28.886719 -12.464844 L 17.785156 -12.464844 L 17.785156 -11.644531 L 28.886719 -11.644531 Z M 45.035156 -12.464844 L 33.933594 -12.464844 L 33.933594 -11.644531 L 45.035156 -11.644531 Z M 12.601562 -10.871094 L 1.273438 -10.871094 L 1.273438 -10.007812 L 12.601562 -10.007812 Z M 28.886719 -10.871094 L 17.785156 -10.871094 L 17.785156 -10.007812 L 28.886719 -10.007812 Z M 45.035156 -10.871094 L 33.933594 -10.871094 L 33.933594 -10.007812 L 45.035156 -10.007812 Z M 12.601562 -9.324219 L 1.273438 -9.324219 L 1.273438 -8.414062 L 12.601562 -8.414062 Z M 28.886719 -9.324219 L 17.785156 -9.324219 L 17.785156 -8.414062 L 28.886719 -8.414062 Z M 45.035156 -9.324219 L 33.933594 -9.324219 L 33.933594 -8.414062 L 45.035156 -8.414062 Z M 12.601562 -7.734375 L 1.273438 -7.734375 L 1.273438 -6.777344 L 12.601562 -6.777344 Z M 28.886719 -7.734375 L 17.785156 -7.734375 L 17.785156 -6.777344 L 28.886719 -6.777344 Z M 45.035156 -7.734375 L 33.933594 -7.734375 L 33.933594 -6.777344 L 45.035156 -6.777344 Z M 12.601562 -6.1875 L 1.273438 -6.1875 L 1.273438 -5.1875 L 12.601562 -5.1875 Z M 28.886719 -6.1875 L 17.785156 -6.1875 L 17.785156 -5.1875 L 28.886719 -5.1875 Z M 45.035156 -6.1875 L 33.933594 -6.1875 L 33.933594 -5.1875 L 45.035156 -5.1875 Z M 12.601562 -4.59375 L 1.273438 -4.59375 L 1.273438 -3.546875 L 12.601562 -3.546875 Z M 28.886719 -4.59375 L 17.785156 -4.59375 L 17.785156 -3.546875 L 28.886719 -3.546875 Z M 45.035156 -4.59375 L 33.933594 -4.59375 L 33.933594 -3.546875 L 45.035156 -3.546875 Z M 12.601562 -3.046875 L 1.273438 -3.046875 L 1.273438 -1.957031 L 12.601562 -1.957031 Z M 28.886719 -3.046875 L 17.785156 -3.046875 L 17.785156 -1.957031 L 28.886719 -1.957031 Z M 45.035156 -3.046875 L 33.933594 -3.046875 L 33.933594 -1.957031 L 45.035156 -1.957031 Z M 12.601562 -1.457031 L 1.273438 -1.457031 L 1.273438 -0.363281 L 12.601562 -0.363281 Z M 28.886719 -1.457031 L 17.785156 -1.457031 L 17.785156 -0.363281 L 28.886719 -0.363281 Z M 45.035156 -1.457031 L 33.933594 -1.457031 L 33.933594 -0.363281 L 45.035156 -0.363281 Z M 45.035156 -1.457031 "/></g></g></g><g fill="#ffffff" fill-opacity="1"><g transform="translate(57.36951, 33.135579)"><g><path d="M 6.867188 -29.339844 L 25.703125 -29.339844 L 25.703125 -29.613281 L 9.097656 -29.613281 C 8.277344 -29.613281 7.550781 -29.523438 6.867188 -29.339844 Z M 16.605469 -28.203125 L 4.367188 -28.203125 L 3.820312 -27.75 L 15.558594 -27.75 C 15.875 -27.929688 16.238281 -28.066406 16.605469 -28.203125 Z M 17.511719 -27.75 L 25.65625 -27.75 L 25.65625 -28.203125 L 17.648438 -28.203125 L 17.785156 -27.929688 C 17.695312 -27.839844 17.605469 -27.792969 17.511719 -27.75 Z M 14.101562 -26.613281 L 2.773438 -26.613281 C 2.683594 -26.429688 2.546875 -26.246094 2.457031 -26.109375 L 13.691406 -26.109375 C 13.828125 -26.292969 13.917969 -26.429688 14.101562 -26.613281 Z M 16.421875 -26.613281 L 16.148438 -26.109375 L 25.65625 -26.109375 L 25.65625 -26.613281 Z M 13.054688 -25.066406 L 1.957031 -25.066406 C 1.863281 -24.882812 1.820312 -24.699219 1.730469 -24.519531 L 12.828125 -24.519531 C 12.875 -24.699219 12.964844 -24.882812 13.054688 -25.066406 Z M 25.65625 -25.066406 L 15.738281 -25.066406 L 15.601562 -24.519531 L 25.65625 -24.519531 Z M 12.554688 -23.472656 L 1.5 -23.472656 C 1.457031 -23.289062 1.457031 -23.109375 1.410156 -22.925781 L 12.507812 -22.925781 C 12.507812 -23.109375 12.554688 -23.289062 12.554688 -23.472656 Z M 25.65625 -23.472656 L 15.511719 -23.472656 L 15.511719 -22.925781 L 25.65625 -22.925781 Z M 12.507812 -21.878906 L 1.410156 -21.878906 C 1.410156 -21.652344 1.410156 -21.472656 1.457031 -21.289062 L 12.601562 -21.289062 C 12.554688 -21.472656 12.554688 -21.652344 12.507812 -21.878906 Z M 15.601562 -21.878906 L 15.738281 -21.289062 L 25.65625 -21.289062 L 25.65625 -21.878906 Z M 12.828125 -20.332031 L 1.636719 -20.332031 C 1.683594 -20.105469 1.730469 -19.878906 1.820312 -19.695312 L 13.054688 -19.695312 C 12.964844 -19.878906 12.917969 -20.105469 12.828125 -20.332031 Z M 16.46875 -19.695312 L 25.65625 -19.695312 L 25.65625 -20.332031 L 16.101562 -20.332031 C 16.195312 -20.105469 16.332031 -19.878906 16.46875 -19.695312 Z M 13.601562 -18.742188 L 2.230469 -18.742188 C 2.320312 -18.515625 2.457031 -18.285156 2.636719 -18.058594 L 14.101562 -18.058594 C 13.917969 -18.285156 13.738281 -18.515625 13.601562 -18.742188 Z M 18.148438 -18.058594 L 25.65625 -18.058594 L 25.65625 -18.742188 L 17.285156 -18.742188 C 17.558594 -18.46875 17.832031 -18.242188 18.148438 -18.058594 Z M 14.921875 -17.195312 L 3.273438 -17.195312 C 3.503906 -16.921875 3.777344 -16.695312 4.046875 -16.46875 L 15.921875 -16.46875 C 15.558594 -16.648438 15.195312 -16.921875 14.921875 -17.195312 Z M 25.65625 -16.785156 L 25.65625 -17.195312 L 20.152344 -17.195312 C 22.835938 -16.375 25.65625 -16.785156 25.65625 -16.785156 Z M 18.058594 -15.601562 L 5.324219 -15.601562 C 5.824219 -15.328125 6.324219 -15.101562 6.867188 -14.964844 L 6.460938 -14.828125 L 19.605469 -14.828125 L 19.605469 -15.421875 C 19.058594 -15.421875 18.558594 -15.464844 18.058594 -15.601562 Z M 16.832031 -14.054688 L 4.820312 -14.054688 C 4.414062 -13.785156 4.003906 -13.511719 3.640625 -13.238281 L 15.058594 -13.238281 C 15.601562 -13.554688 16.195312 -13.828125 16.832031 -14.054688 Z M 14.054688 -12.464844 L 2.867188 -12.464844 C 2.636719 -12.191406 2.410156 -11.917969 2.230469 -11.644531 L 13.375 -11.644531 C 13.554688 -11.917969 13.785156 -12.191406 14.054688 -12.464844 Z M 18.195312 -11.644531 L 25.65625 -11.644531 L 25.703125 -12.464844 L 20.152344 -12.464844 C 19.46875 -12.28125 18.789062 -12.007812 18.195312 -11.644531 Z M 12.917969 -10.871094 L 1.773438 -10.871094 C 1.636719 -10.597656 1.5 -10.28125 1.410156 -10.007812 L 12.554688 -10.007812 C 12.644531 -10.28125 12.78125 -10.597656 12.917969 -10.871094 Z M 16.421875 -10.007812 L 25.65625 -10.007812 L 25.65625 -10.871094 L 17.148438 -10.871094 C 16.875 -10.597656 16.648438 -10.324219 16.421875 -10.007812 Z M 1 -8.414062 L 12.375 -8.414062 L 12.375 -8.550781 C 12.375 -8.824219 12.375 -9.050781 12.417969 -9.324219 L 1.183594 -9.324219 C 1.089844 -9.007812 1.046875 -8.734375 1 -8.414062 Z M 15.738281 -8.414062 L 25.65625 -8.414062 L 25.65625 -9.324219 L 16.011719 -9.324219 C 15.875 -9.050781 15.832031 -8.734375 15.738281 -8.414062 Z M 12.375 -7.734375 L 0.910156 -7.734375 L 0.910156 -6.777344 L 12.554688 -6.777344 C 12.464844 -7.097656 12.417969 -7.414062 12.375 -7.734375 Z M 15.511719 -6.777344 L 25.65625 -6.777344 L 25.65625 -7.734375 L 15.601562 -7.734375 C 15.558594 -7.414062 15.511719 -7.097656 15.511719 -6.777344 Z M 12.691406 -6.1875 L 0.957031 -6.1875 C 1 -5.824219 1.089844 -5.503906 1.183594 -5.1875 L 13.054688 -5.1875 C 12.917969 -5.503906 12.78125 -5.824219 12.691406 -6.1875 Z M 15.601562 -5.1875 L 25.65625 -5.1875 L 25.65625 -6.1875 L 15.511719 -6.1875 C 15.511719 -5.824219 15.558594 -5.503906 15.601562 -5.1875 Z M 13.328125 -4.59375 L 1.410156 -4.59375 C 1.546875 -4.230469 1.730469 -3.867188 1.957031 -3.546875 L 14.054688 -3.546875 C 13.785156 -3.867188 13.554688 -4.230469 13.328125 -4.59375 Z M 15.738281 -4.59375 L 16.148438 -3.546875 L 25.65625 -3.546875 L 25.65625 -4.59375 Z M 14.464844 -3.046875 L 2.273438 -3.046875 C 2.546875 -2.636719 2.910156 -2.273438 3.273438 -1.957031 L 15.785156 -1.957031 C 15.328125 -2.230469 14.875 -2.636719 14.464844 -3.046875 Z M 17.511719 -1.957031 L 25.65625 -1.957031 L 25.65625 -3.046875 L 16.46875 -3.046875 C 16.785156 -2.636719 17.105469 -2.273438 17.511719 -1.957031 Z M 16.832031 -1.457031 L 3.914062 -1.457031 C 4.640625 -0.957031 5.457031 -0.589844 6.414062 -0.363281 L 25.65625 -0.363281 L 25.65625 -1.457031 L 17.695312 -1.457031 L 17.605469 -1.226562 C 17.332031 -1.273438 17.058594 -1.363281 16.832031 -1.457031 Z M 16.832031 -1.457031 "/></g></g><g transform="translate(83.980975, 33.135579)"><g><path d="M 1.363281 -29.339844 L 12.875 -29.339844 L 12.875 -29.613281 L 1.363281 -29.613281 Z M 12.875 -28.203125 L 1.363281 -28.203125 L 1.363281 -27.75 L 12.875 -27.75 Z M 12.875 -26.613281 L 1.363281 -26.613281 L 1.363281 -26.109375 L 12.875 -26.109375 Z M 12.875 -25.066406 L 1.363281 -25.066406 L 1.363281 -24.519531 L 12.875 -24.519531 Z M 12.875 -23.472656 L 1.363281 -23.472656 L 1.363281 -22.925781 L 12.875 -22.925781 Z M 12.875 -21.878906 L 1.363281 -21.878906 L 1.363281 -21.289062 L 12.875 -21.289062 Z M 12.875 -20.332031 L 1.363281 -20.332031 L 1.363281 -19.695312 L 12.875 -19.695312 Z M 12.875 -18.742188 L 1.363281 -18.742188 L 1.363281 -18.058594 L 12.875 -18.058594 Z M 12.875 -17.195312 L 1.363281 -17.195312 L 1.363281 -16.46875 L 12.875 -16.46875 Z M 12.875 -15.601562 L 1.363281 -15.601562 L 1.363281 -14.828125 L 12.875 -14.828125 Z M 12.875 -14.054688 L 1.363281 -14.054688 L 1.363281 -13.238281 L 12.875 -13.238281 Z M 12.101562 -12.464844 L 1.363281 -12.464844 L 1.363281 -11.644531 L 9.644531 -11.644531 C 10.324219 -12.007812 11.191406 -12.328125 12.101562 -12.464844 Z M 13.328125 -11.644531 L 19.742188 -11.644531 L 19.742188 -12.417969 C 18.558594 -12.417969 15.695312 -12.554688 13.328125 -11.644531 Z M 8.550781 -10.871094 L 1.363281 -10.871094 L 1.363281 -10.007812 L 7.824219 -10.007812 C 8.007812 -10.324219 8.277344 -10.597656 8.550781 -10.871094 Z M 10.828125 -10.007812 L 19.742188 -10.007812 L 19.742188 -10.871094 L 11.828125 -10.871094 C 11.464844 -10.597656 11.144531 -10.324219 10.828125 -10.007812 Z M 7.414062 -9.324219 L 1.363281 -9.324219 L 1.363281 -8.414062 L 7.097656 -8.414062 C 7.1875 -8.734375 7.277344 -9.007812 7.414062 -9.324219 Z M 9.917969 -8.414062 L 19.742188 -8.414062 L 19.742188 -9.324219 L 10.371094 -9.324219 C 10.191406 -9.050781 10.054688 -8.734375 9.917969 -8.414062 Z M 6.960938 -7.734375 L 1.363281 -7.734375 L 1.363281 -6.777344 L 6.914062 -6.777344 C 6.914062 -7.097656 6.914062 -7.414062 6.960938 -7.734375 Z M 9.644531 -6.777344 L 19.742188 -6.777344 L 19.742188 -7.734375 L 9.734375 -7.734375 C 9.6875 -7.414062 9.644531 -7.097656 9.644531 -6.777344 Z M 6.914062 -6.1875 L 1.363281 -6.1875 L 1.363281 -5.1875 L 7.003906 -5.1875 C 6.960938 -5.503906 6.914062 -5.824219 6.914062 -6.1875 Z M 9.734375 -5.1875 L 19.742188 -5.1875 L 19.742188 -6.1875 L 9.644531 -6.1875 C 9.644531 -5.824219 9.6875 -5.503906 9.734375 -5.1875 Z M 7.1875 -4.59375 L 1.363281 -4.59375 L 1.363281 -3.546875 L 7.640625 -3.546875 C 7.460938 -3.867188 7.277344 -4.230469 7.1875 -4.59375 Z M 9.871094 -4.59375 L 10.28125 -3.546875 L 19.742188 -3.546875 L 19.742188 -4.59375 Z M 7.960938 -3.046875 L 1.363281 -3.046875 L 1.363281 -1.957031 L 9.1875 -1.957031 C 8.6875 -2.273438 8.277344 -2.636719 7.960938 -3.046875 Z M 11.644531 -1.957031 L 19.742188 -1.957031 L 19.742188 -3.046875 L 10.597656 -3.046875 C 10.917969 -2.636719 11.234375 -2.230469 11.644531 -1.957031 Z M 19.742188 -1.457031 L 12.417969 -1.457031 L 12.238281 -0.957031 C 11.464844 -1.046875 10.78125 -1.226562 10.234375 -1.457031 L 1.363281 -1.457031 L 1.363281 -0.363281 L 19.742188 -0.363281 Z M 19.742188 -1.457031 "/></g></g></g><g fill="#ffffff" fill-opacity="1"><g transform="translate(104.633301, 33.135579)"><g><path d="M 26.429688 -29.339844 L 26.429688 -29.613281 L 11.007812 -29.613281 C 9.644531 -29.613281 8.234375 -29.566406 6.914062 -29.339844 Z M 15.738281 -28.203125 L 3.503906 -28.203125 L 2.820312 -27.75 L 14.691406 -27.75 C 15.011719 -27.929688 15.375 -28.066406 15.738281 -28.203125 Z M 19.425781 -28.113281 L 18.789062 -27.75 L 26.429688 -27.75 L 26.429688 -28.203125 L 19.378906 -28.203125 Z M 12.917969 -26.109375 L 13.28125 -26.613281 L 1.773438 -26.613281 C 1.636719 -26.429688 1.546875 -26.292969 1.457031 -26.109375 Z M 17.195312 -26.109375 L 26.429688 -26.109375 L 26.429688 -26.613281 L 17.511719 -26.613281 C 17.421875 -26.429688 17.285156 -26.292969 17.195312 -26.109375 Z M 12.464844 -25.066406 L 1 -25.066406 C 0.910156 -24.882812 0.863281 -24.699219 0.820312 -24.519531 L 12.375 -24.519531 C 12.417969 -24.699219 12.417969 -24.882812 12.464844 -25.066406 Z M 16.695312 -24.519531 L 26.429688 -24.519531 L 26.429688 -25.066406 L 16.785156 -25.066406 C 16.738281 -24.882812 16.738281 -24.699219 16.695312 -24.519531 Z M 12.328125 -23.472656 L 0.636719 -23.472656 C 0.589844 -23.289062 0.589844 -23.109375 0.589844 -22.925781 L 12.375 -22.925781 C 12.375 -23.109375 12.328125 -23.289062 12.328125 -23.472656 Z M 26.429688 -23.472656 L 16.648438 -23.472656 L 16.648438 -22.925781 L 26.429688 -22.925781 Z M 12.964844 -21.289062 L 12.691406 -21.878906 L 0.589844 -21.878906 C 0.636719 -21.652344 0.636719 -21.472656 0.636719 -21.289062 Z M 17.058594 -21.289062 L 26.429688 -21.289062 L 26.429688 -21.878906 L 16.832031 -21.878906 C 16.875 -21.652344 16.96875 -21.472656 17.058594 -21.289062 Z M 13.648438 -20.332031 L 0.863281 -20.332031 C 0.910156 -20.105469 1 -19.878906 1.089844 -19.695312 L 14.285156 -19.695312 C 14.054688 -19.878906 13.828125 -20.105469 13.648438 -20.332031 Z M 18.015625 -19.695312 L 26.429688 -19.695312 L 26.429688 -20.332031 L 17.511719 -20.332031 C 17.648438 -20.105469 17.832031 -19.878906 18.015625 -19.695312 Z M 15.464844 -18.742188 L 1.59375 -18.742188 C 1.730469 -18.46875 1.910156 -18.285156 2.09375 -18.058594 L 16.46875 -18.058594 C 16.101562 -18.242188 15.785156 -18.515625 15.464844 -18.742188 Z M 20.605469 -18.058594 L 26.476562 -18.058594 L 26.429688 -18.742188 L 19.152344 -18.742188 C 19.605469 -18.46875 20.105469 -18.242188 20.605469 -18.058594 Z M 19.378906 -16.46875 L 17.96875 -17.195312 L 2.957031 -17.195312 C 3.230469 -16.921875 3.546875 -16.695312 3.867188 -16.46875 Z M 21.015625 -15.601562 L 5.230469 -15.601562 C 5.6875 -15.328125 6.1875 -15.058594 6.640625 -14.828125 L 22.289062 -14.828125 C 21.878906 -15.101562 21.472656 -15.328125 21.015625 -15.601562 Z M 23.382812 -14.054688 L 8.234375 -14.054688 L 9.824219 -13.238281 L 24.292969 -13.238281 C 24.019531 -13.511719 23.699219 -13.785156 23.382812 -14.054688 Z M 6.867188 -12.464844 L 1.273438 -12.464844 L 1.273438 -11.644531 L 8.824219 -11.644531 C 8.234375 -12.007812 7.550781 -12.238281 6.867188 -12.464844 Z M 25.019531 -12.464844 L 11.191406 -12.464844 C 11.601562 -12.191406 12.007812 -11.917969 12.375 -11.644531 L 25.609375 -11.644531 C 25.429688 -11.917969 25.246094 -12.191406 25.019531 -12.464844 Z M 9.871094 -10.871094 L 1.273438 -10.871094 L 1.273438 -10.007812 L 10.597656 -10.007812 C 10.371094 -10.324219 10.144531 -10.597656 9.871094 -10.871094 Z M 26.019531 -10.871094 L 13.28125 -10.871094 C 13.554688 -10.597656 13.828125 -10.28125 14.054688 -10.007812 L 26.339844 -10.007812 C 26.246094 -10.28125 26.15625 -10.597656 26.019531 -10.871094 Z M 11.007812 -9.324219 L 1.273438 -9.324219 L 1.273438 -8.414062 L 11.371094 -8.414062 C 11.28125 -8.734375 11.144531 -9.050781 11.007812 -9.324219 Z M 26.519531 -9.324219 L 14.558594 -9.324219 C 14.738281 -9.007812 14.875 -8.734375 15.011719 -8.414062 L 26.613281 -8.414062 C 26.613281 -8.734375 26.566406 -9.007812 26.519531 -9.324219 Z M 1.273438 -6.777344 L 11.644531 -6.777344 L 11.507812 -7.734375 L 1.273438 -7.734375 Z M 26.613281 -7.734375 L 15.238281 -7.734375 C 15.328125 -7.414062 15.375 -7.097656 15.421875 -6.777344 L 26.519531 -6.777344 C 26.566406 -7.097656 26.613281 -7.414062 26.613281 -7.734375 Z M 11.644531 -6.1875 L 1.273438 -6.1875 L 1.273438 -5.1875 L 11.554688 -5.1875 C 11.601562 -5.457031 11.644531 -5.824219 11.644531 -6.1875 Z M 26.15625 -5.1875 L 26.429688 -6.1875 L 15.511719 -6.1875 L 15.511719 -6.09375 C 15.511719 -5.777344 15.464844 -5.457031 15.421875 -5.1875 Z M 11.417969 -4.59375 L 1.273438 -4.59375 L 1.273438 -3.546875 L 10.964844 -3.546875 C 11.144531 -3.867188 11.328125 -4.183594 11.417969 -4.59375 Z M 25.929688 -4.59375 L 15.285156 -4.59375 C 15.195312 -4.183594 15.058594 -3.867188 14.875 -3.546875 L 25.382812 -3.546875 C 25.609375 -3.867188 25.746094 -4.230469 25.929688 -4.59375 Z M 10.644531 -3.046875 L 1.273438 -3.046875 L 1.273438 -1.957031 L 9.417969 -1.957031 C 9.871094 -2.273438 10.324219 -2.59375 10.644531 -3.046875 Z M 25.066406 -3.046875 L 14.558594 -3.046875 C 14.191406 -2.546875 13.738281 -2.230469 13.191406 -1.957031 L 24.0625 -1.957031 C 24.429688 -2.273438 24.792969 -2.636719 25.066406 -3.046875 Z M 23.425781 -1.457031 L 11.78125 -1.457031 C 10.964844 -1.273438 10.054688 -1.183594 9.097656 -1.183594 L 9.007812 -1.457031 L 1.273438 -1.457031 L 1.320312 -0.363281 L 21.0625 -0.363281 C 21.972656 -0.589844 22.746094 -1 23.425781 -1.457031 Z M 23.425781 -1.457031 "/></g></g></g><g fill="#ffffff" fill-opacity="1"><g transform="translate(131.972603, 33.135579)"><g><path d="M 11.917969 -29.75 L 10.597656 -29.339844 L 21.015625 -29.339844 L 19.695312 -29.75 Z M 11.554688 -28.203125 L 8.097656 -28.203125 C 7.871094 -28.066406 7.640625 -27.886719 7.371094 -27.75 L 10.644531 -27.75 C 10.964844 -27.929688 11.234375 -28.066406 11.554688 -28.203125 Z M 23.472656 -28.203125 L 12.417969 -28.203125 L 12.417969 -27.75 L 24.246094 -27.75 C 23.972656 -27.886719 23.746094 -28.066406 23.472656 -28.203125 Z M 5.277344 -26.109375 L 8.734375 -26.109375 C 8.871094 -26.292969 9.007812 -26.429688 9.1875 -26.613281 L 5.824219 -26.613281 C 5.640625 -26.429688 5.457031 -26.246094 5.277344 -26.109375 Z M 25.746094 -26.613281 L 12.417969 -26.613281 L 12.417969 -26.109375 L 26.292969 -26.109375 C 26.109375 -26.246094 25.929688 -26.429688 25.746094 -26.613281 Z M 4.277344 -25.066406 L 3.777344 -24.519531 L 7.640625 -24.519531 C 7.734375 -24.699219 7.824219 -24.882812 7.960938 -25.066406 Z M 27.792969 -24.519531 L 27.339844 -25.066406 L 12.417969 -25.066406 L 12.417969 -24.519531 Z M 2.636719 -22.925781 L 6.960938 -22.925781 C 7.050781 -23.109375 7.097656 -23.289062 7.1875 -23.472656 L 3.003906 -23.472656 C 2.910156 -23.289062 2.773438 -23.109375 2.636719 -22.925781 Z M 28.566406 -23.472656 L 12.417969 -23.472656 L 12.417969 -22.925781 L 28.929688 -22.925781 C 28.839844 -23.109375 28.703125 -23.289062 28.566406 -23.472656 Z M 2.046875 -21.878906 L 1.773438 -21.289062 L 6.597656 -21.289062 C 6.640625 -21.472656 6.640625 -21.652344 6.6875 -21.878906 Z M 29.523438 -21.878906 L 12.417969 -21.878906 L 12.417969 -21.289062 L 29.839844 -21.289062 C 29.75 -21.472656 29.613281 -21.652344 29.523438 -21.878906 Z M 1.136719 -19.695312 L 6.503906 -19.695312 L 6.503906 -20.332031 L 1.363281 -20.332031 C 1.273438 -20.105469 1.226562 -19.878906 1.136719 -19.695312 Z M 30.207031 -20.332031 L 12.417969 -20.332031 L 12.417969 -19.695312 L 30.433594 -19.695312 C 30.386719 -19.878906 30.296875 -20.105469 30.207031 -20.332031 Z M 0.683594 -18.058594 L 6.640625 -18.058594 C 6.597656 -18.285156 6.597656 -18.515625 6.550781 -18.742188 L 0.863281 -18.742188 C 0.773438 -18.515625 0.726562 -18.285156 0.683594 -18.058594 Z M 12.417969 -18.058594 L 30.886719 -18.058594 L 30.75 -18.742188 L 12.417969 -18.742188 Z M 0.453125 -16.46875 L 7.050781 -16.46875 C 6.960938 -16.695312 6.867188 -16.921875 6.824219 -17.195312 L 0.546875 -17.195312 C 0.5 -16.921875 0.453125 -16.695312 0.453125 -16.46875 Z M 14.101562 -17.195312 L 12.417969 -17.195312 L 12.417969 -16.46875 L 12.828125 -16.46875 C 13.191406 -16.785156 13.648438 -17.058594 14.101562 -17.195312 Z M 31.070312 -17.195312 L 15.96875 -17.195312 C 16.46875 -17.058594 16.921875 -16.785156 17.285156 -16.46875 L 31.160156 -16.46875 C 31.113281 -16.695312 31.113281 -16.921875 31.070312 -17.195312 Z M 7.371094 -15.601562 L 0.363281 -15.601562 L 0.363281 -14.828125 L 7.734375 -14.828125 C 7.597656 -15.058594 7.460938 -15.328125 7.371094 -15.601562 Z M 31.207031 -15.601562 L 17.96875 -15.601562 C 18.105469 -15.328125 18.195312 -15.101562 18.285156 -14.828125 L 31.25 -14.828125 C 31.25 -15.058594 31.25 -15.328125 31.207031 -15.601562 Z M 0.453125 -13.238281 L 8.914062 -13.238281 C 8.6875 -13.511719 8.414062 -13.738281 8.234375 -14.054688 L 0.363281 -14.054688 C 0.410156 -13.785156 0.410156 -13.511719 0.453125 -13.238281 Z M 31.207031 -14.054688 L 18.378906 -14.054688 L 18.378906 -14.011719 C 18.378906 -13.738281 18.332031 -13.464844 18.285156 -13.238281 L 31.160156 -13.238281 C 31.160156 -13.511719 31.207031 -13.785156 31.207031 -14.054688 Z M 9.734375 -12.464844 L 0.546875 -12.464844 L 0.683594 -11.644531 L 10.964844 -11.644531 C 10.507812 -11.871094 10.097656 -12.144531 9.734375 -12.464844 Z M 31.070312 -12.464844 L 18.015625 -12.464844 C 17.832031 -12.144531 17.648438 -11.871094 17.378906 -11.644531 L 30.886719 -11.644531 C 30.933594 -11.917969 31.023438 -12.191406 31.070312 -12.464844 Z M 0.863281 -10.871094 L 1.136719 -10.007812 L 30.476562 -10.007812 C 30.570312 -10.28125 30.660156 -10.554688 30.707031 -10.871094 L 16.148438 -10.871094 C 15.832031 -10.734375 15.421875 -10.691406 15.058594 -10.691406 C 14.375 -10.691406 13.785156 -10.734375 13.191406 -10.871094 Z M 1.730469 -8.414062 L 29.839844 -8.414062 C 29.976562 -8.6875 30.113281 -9.007812 30.207031 -9.324219 L 1.363281 -9.324219 C 1.5 -9.007812 1.59375 -8.6875 1.730469 -8.414062 Z M 2.636719 -6.777344 L 28.976562 -6.777344 L 29.523438 -7.734375 L 2.09375 -7.734375 C 2.230469 -7.414062 2.457031 -7.097656 2.636719 -6.777344 Z M 3.730469 -5.1875 L 27.839844 -5.1875 C 28.113281 -5.503906 28.386719 -5.824219 28.613281 -6.1875 L 3.003906 -6.1875 C 3.230469 -5.824219 3.503906 -5.503906 3.730469 -5.1875 Z M 5.277344 -3.546875 L 26.339844 -3.546875 C 26.703125 -3.867188 27.019531 -4.230469 27.339844 -4.59375 L 4.230469 -4.59375 C 4.550781 -4.230469 4.914062 -3.867188 5.277344 -3.546875 Z M 7.277344 -1.957031 L 24.335938 -1.957031 C 24.835938 -2.273438 25.335938 -2.636719 25.792969 -3.046875 L 5.777344 -3.046875 C 6.230469 -2.636719 6.777344 -2.273438 7.277344 -1.957031 Z M 10.371094 -0.363281 L 21.242188 -0.363281 C 22.0625 -0.636719 22.789062 -1 23.519531 -1.457031 L 8.050781 -1.457031 C 8.78125 -1 9.554688 -0.636719 10.371094 -0.363281 Z M 15.832031 0.636719 C 17.148438 0.636719 18.46875 0.453125 19.695312 0.136719 L 11.917969 0.136719 C 13.191406 0.453125 14.464844 0.636719 15.832031 0.636719 Z M 15.832031 0.636719 "/></g></g></g><g fill="#ffffff" fill-opacity="1"><g transform="translate(163.678923, 33.135579)"><g><path d="M 24.972656 -29.339844 L 24.972656 -29.566406 L 1.363281 -29.566406 L 1.363281 -29.339844 Z M 15.285156 -28.203125 L 1.363281 -28.203125 L 1.363281 -27.75 L 14.191406 -27.75 C 14.558594 -27.929688 14.921875 -28.066406 15.285156 -28.203125 Z M 16.332031 -27.886719 L 16.101562 -27.75 L 24.929688 -27.75 L 24.929688 -28.203125 L 16.195312 -28.203125 Z M 12.328125 -26.109375 L 12.738281 -26.613281 L 1.363281 -26.613281 L 1.363281 -26.109375 Z M 14.648438 -26.109375 L 24.929688 -26.109375 L 24.929688 -26.613281 L 14.964844 -26.613281 C 14.875 -26.429688 14.738281 -26.292969 14.648438 -26.109375 Z M 11.691406 -25.066406 L 1.363281 -25.066406 L 1.363281 -24.519531 L 11.464844 -24.519531 C 11.507812 -24.699219 11.601562 -24.882812 11.691406 -25.066406 Z M 14.011719 -24.519531 L 24.929688 -24.519531 L 24.929688 -25.066406 L 14.191406 -25.066406 C 14.101562 -24.882812 14.054688 -24.699219 14.011719 -24.519531 Z M 1.363281 -22.925781 L 11.007812 -22.925781 L 11.144531 -23.472656 L 1.363281 -23.472656 Z M 13.785156 -22.925781 L 24.929688 -22.925781 L 24.929688 -23.472656 L 13.828125 -23.472656 C 13.828125 -23.289062 13.785156 -23.109375 13.785156 -22.925781 Z M 10.917969 -21.878906 L 1.363281 -21.878906 L 1.363281 -21.289062 L 10.917969 -21.289062 Z M 13.964844 -21.289062 L 24.929688 -21.289062 L 24.929688 -21.878906 L 13.875 -21.878906 C 13.875 -21.699219 13.917969 -21.472656 13.964844 -21.289062 Z M 11.007812 -20.332031 L 1.363281 -20.332031 L 1.363281 -19.695312 L 11.097656 -19.695312 C 11.054688 -19.878906 11.054688 -20.105469 11.007812 -20.332031 Z M 14.558594 -19.695312 L 24.929688 -19.695312 L 24.929688 -20.332031 L 14.285156 -20.332031 C 14.375 -20.105469 14.421875 -19.878906 14.558594 -19.695312 Z M 1.363281 -18.058594 L 11.691406 -18.058594 L 11.417969 -18.742188 L 1.363281 -18.742188 Z M 15.875 -18.058594 L 24.929688 -18.058594 L 24.929688 -18.742188 L 15.195312 -18.742188 C 15.375 -18.46875 15.648438 -18.242188 15.875 -18.058594 Z M 12.191406 -17.195312 L 1.363281 -17.195312 L 1.363281 -16.46875 L 12.78125 -16.46875 C 12.601562 -16.695312 12.375 -16.921875 12.191406 -17.195312 Z M 19.105469 -16.46875 L 24.929688 -16.46875 L 24.929688 -17.195312 L 17.195312 -17.195312 C 17.785156 -16.875 18.46875 -16.648438 19.105469 -16.46875 Z M 13.738281 -15.601562 L 1.363281 -15.601562 L 1.363281 -14.828125 L 15.148438 -14.828125 C 14.648438 -15.011719 14.148438 -15.285156 13.738281 -15.601562 Z M 23.019531 -14.054688 L 1.363281 -14.054688 L 1.363281 -13.238281 L 23.019531 -13.238281 Z M 17.742188 -12.238281 L 23.019531 -12.238281 L 23.019531 -12.464844 L 1.363281 -12.464844 L 1.363281 -11.644531 L 15.464844 -11.644531 C 16.101562 -12.007812 16.875 -12.238281 17.742188 -12.238281 Z M 14.464844 -10.871094 L 1.363281 -10.871094 L 1.363281 -10.007812 L 13.738281 -10.007812 C 13.917969 -10.324219 14.191406 -10.597656 14.464844 -10.871094 Z M 13.328125 -9.324219 L 1.363281 -9.324219 L 1.363281 -8.414062 L 12.964844 -8.414062 C 13.054688 -8.734375 13.191406 -9.007812 13.328125 -9.324219 Z M 1.363281 -6.777344 L 12.644531 -6.777344 L 12.78125 -7.734375 L 1.363281 -7.734375 Z M 12.644531 -6.1875 L 1.363281 -6.1875 L 1.363281 -5.1875 L 12.644531 -5.1875 Z M 12.644531 -4.59375 L 1.363281 -4.59375 L 1.363281 -3.546875 L 12.644531 -3.546875 Z M 12.644531 -3.046875 L 1.363281 -3.046875 L 1.363281 -1.957031 L 12.644531 -1.957031 Z M 12.644531 -1.457031 L 1.363281 -1.457031 L 1.363281 -0.363281 L 12.644531 -0.363281 Z M 12.644531 -1.457031 "/></g></g></g><g fill="#ffffff" fill-opacity="1"><g transform="translate(189.653535, 33.135579)"><g><path d="M 1.183594 -29.339844 L 23.5625 -29.339844 L 23.5625 -29.566406 L 1.183594 -29.566406 Z M 8.644531 -28.203125 L 1.183594 -28.203125 L 1.183594 -27.75 L 8.507812 -27.75 Z M 10.507812 -27.75 L 23.5625 -27.75 L 23.5625 -28.203125 L 8.914062 -28.203125 C 9.507812 -28.066406 10.054688 -27.929688 10.507812 -27.75 Z M 10.417969 -26.109375 L 10.007812 -26.613281 L 1.183594 -26.613281 L 1.183594 -26.109375 Z M 12.875 -26.109375 L 23.5625 -26.109375 L 23.5625 -26.613281 L 12.417969 -26.613281 C 12.554688 -26.429688 12.738281 -26.246094 12.875 -26.109375 Z M 1.183594 -24.519531 L 11.054688 -24.519531 L 10.917969 -25.066406 L 1.183594 -25.066406 Z M 13.738281 -24.519531 L 23.5625 -24.519531 L 23.5625 -25.066406 L 13.511719 -25.066406 C 13.601562 -24.882812 13.648438 -24.699219 13.738281 -24.519531 Z M 1.183594 -22.925781 L 11.191406 -22.925781 L 11.191406 -23.472656 L 1.183594 -23.472656 Z M 13.917969 -22.925781 L 23.5625 -22.925781 L 23.5625 -23.472656 L 13.917969 -23.472656 C 13.964844 -23.289062 13.917969 -23.109375 13.917969 -22.925781 Z M 11.054688 -21.878906 L 1.183594 -21.878906 L 1.183594 -21.289062 L 10.871094 -21.289062 C 10.964844 -21.472656 11.007812 -21.652344 11.054688 -21.878906 Z M 13.785156 -21.878906 L 13.648438 -21.289062 L 23.5625 -21.289062 L 23.5625 -21.878906 Z M 10.460938 -20.332031 L 1.183594 -20.332031 L 1.183594 -19.695312 L 10.007812 -19.695312 C 10.144531 -19.878906 10.324219 -20.105469 10.460938 -20.332031 Z M 12.78125 -19.695312 L 23.5625 -19.695312 L 23.5625 -20.332031 L 13.191406 -20.332031 C 13.101562 -20.105469 12.964844 -19.878906 12.78125 -19.695312 Z M 8.914062 -18.742188 L 1.183594 -18.742188 L 1.183594 -18.058594 L 7.503906 -18.058594 C 8.007812 -18.242188 8.460938 -18.46875 8.914062 -18.742188 Z M 11.144531 -18.058594 L 23.5625 -18.058594 L 23.5625 -18.742188 L 11.964844 -18.742188 C 11.738281 -18.46875 11.417969 -18.242188 11.144531 -18.058594 Z M 7.140625 -16.738281 L 7.140625 -16.46875 L 18.332031 -16.46875 L 18.332031 -17.195312 L 9.417969 -17.195312 C 8.734375 -16.921875 7.960938 -16.785156 7.140625 -16.738281 Z M 18.332031 -15.601562 L 7.140625 -15.601562 L 7.140625 -14.828125 L 18.332031 -14.828125 Z M 18.332031 -14.054688 L 7.140625 -14.054688 L 7.140625 -13.238281 L 18.332031 -13.238281 Z M 18.332031 -12.464844 L 7.140625 -12.464844 L 7.140625 -11.644531 L 18.332031 -11.644531 Z M 18.332031 -10.871094 L 7.140625 -10.871094 L 7.140625 -10.007812 L 18.332031 -10.007812 Z M 18.332031 -9.324219 L 7.140625 -9.324219 L 7.140625 -8.414062 L 18.332031 -8.414062 Z M 18.332031 -7.734375 L 7.140625 -7.734375 L 7.140625 -6.777344 L 18.332031 -6.777344 Z M 18.332031 -6.1875 L 7.140625 -6.1875 L 7.140625 -5.1875 L 18.332031 -5.1875 Z M 18.332031 -4.59375 L 7.140625 -4.59375 L 7.140625 -3.546875 L 18.332031 -3.546875 Z M 18.332031 -3.046875 L 7.140625 -3.046875 L 7.140625 -1.957031 L 18.332031 -1.957031 Z M 18.332031 -1.457031 L 7.140625 -1.457031 L 7.1875 -0.363281 L 18.378906 -0.363281 Z M 18.332031 -1.457031 "/></g></g></g></svg>