<svg xmlns="http://www.w3.org/2000/svg" xmlns:xlink="http://www.w3.org/1999/xlink" width="300" zoomAndPan="magnify" viewBox="0 0 224.87999 37.5" height="50" preserveAspectRatio="xMidYMid meet" version="1.0"><defs><g/></defs><g fill="#ffffff" fill-opacity="1"><g transform="translate(43.529908, 23.931243)"><g><path d="M 12.320312 -19.917969 L 16.089844 -19.917969 C 15.6875 -20.039062 15.222656 -20.132812 14.730469 -20.195312 L 13.523438 -20.195312 C 13.09375 -20.132812 12.691406 -20.039062 12.320312 -19.917969 Z M 23.3125 -19.917969 L 27.082031 -19.917969 C 26.679688 -20.039062 26.246094 -20.132812 25.785156 -20.195312 L 24.488281 -20.195312 C 24.054688 -20.132812 23.683594 -20.039062 23.3125 -19.917969 Z M 8.554688 -20.101562 L 0.863281 -20.101562 L 0.863281 -19.917969 L 8.554688 -19.917969 Z M 8.554688 -19.144531 L 0.863281 -19.144531 L 0.863281 -18.835938 L 8.554688 -18.835938 Z M 10.746094 -18.835938 L 17.816406 -18.835938 L 17.507812 -19.144531 L 11.054688 -19.144531 C 10.929688 -19.050781 10.839844 -18.929688 10.746094 -18.835938 Z M 28.46875 -19.144531 L 22.015625 -19.144531 L 21.707031 -18.835938 L 28.808594 -18.835938 C 28.71875 -18.929688 28.59375 -19.050781 28.46875 -19.144531 Z M 8.554688 -18.0625 L 0.863281 -18.0625 L 0.863281 -17.722656 L 8.554688 -17.722656 Z M 9.941406 -17.722656 L 18.652344 -17.722656 C 18.589844 -17.847656 18.527344 -17.941406 18.433594 -18.0625 L 10.160156 -18.0625 C 10.097656 -17.941406 10.003906 -17.816406 9.941406 -17.722656 Z M 20.9375 -17.722656 L 29.613281 -17.722656 C 29.550781 -17.847656 29.457031 -17.941406 29.398438 -18.0625 L 21.121094 -18.0625 C 21.058594 -17.941406 20.996094 -17.816406 20.9375 -17.722656 Z M 8.554688 -17.015625 L 0.863281 -17.015625 L 0.863281 -16.644531 L 8.554688 -16.644531 Z M 9.480469 -16.644531 L 19.082031 -16.644531 C 19.019531 -16.765625 18.992188 -16.890625 18.960938 -17.015625 L 9.632812 -17.015625 C 9.574219 -16.890625 9.542969 -16.765625 9.480469 -16.644531 Z M 20.472656 -16.644531 L 30.046875 -16.644531 C 30.015625 -16.765625 29.984375 -16.890625 29.921875 -17.015625 L 20.597656 -17.015625 C 20.566406 -16.890625 20.503906 -16.765625 20.472656 -16.644531 Z M 8.554688 -15.933594 L 0.863281 -15.933594 L 0.863281 -15.5625 L 8.554688 -15.5625 Z M 19.269531 -15.933594 L 9.292969 -15.933594 L 9.203125 -15.5625 L 19.332031 -15.5625 C 19.300781 -15.6875 19.300781 -15.808594 19.269531 -15.933594 Z M 20.195312 -15.5625 L 30.324219 -15.5625 L 30.230469 -15.933594 L 20.257812 -15.933594 C 20.226562 -15.808594 20.226562 -15.6875 20.195312 -15.5625 Z M 8.554688 -14.851562 L 0.863281 -14.851562 L 0.863281 -14.453125 L 8.554688 -14.453125 Z M 9.015625 -14.453125 L 19.515625 -14.453125 C 19.484375 -14.574219 19.484375 -14.699219 19.453125 -14.851562 L 9.078125 -14.851562 C 9.078125 -14.699219 9.046875 -14.574219 9.015625 -14.453125 Z M 30.414062 -14.851562 L 20.039062 -14.851562 C 20.039062 -14.699219 20.007812 -14.574219 20.007812 -14.453125 L 30.445312 -14.453125 C 30.445312 -14.574219 30.414062 -14.699219 30.414062 -14.851562 Z M 8.554688 -13.804688 L 0.863281 -13.804688 L 0.863281 -13.371094 L 8.554688 -13.371094 Z M 8.953125 -13.371094 L 19.578125 -13.371094 C 19.578125 -13.492188 19.578125 -13.648438 19.546875 -13.804688 L 8.984375 -13.804688 C 8.953125 -13.648438 8.953125 -13.492188 8.953125 -13.371094 Z M 19.917969 -13.371094 L 30.539062 -13.371094 C 30.539062 -13.492188 30.507812 -13.648438 30.507812 -13.804688 L 19.949219 -13.804688 C 19.917969 -13.648438 19.917969 -13.492188 19.917969 -13.371094 Z M 0.863281 -12.257812 L 30.570312 -12.257812 L 30.570312 -12.722656 L 0.863281 -12.722656 Z M 9.234375 -11.671875 L 0.863281 -11.671875 L 0.863281 -11.179688 L 8.832031 -11.179688 C 8.953125 -11.363281 9.078125 -11.519531 9.234375 -11.671875 Z M 20.226562 -11.671875 L 11.363281 -11.671875 C 11.519531 -11.519531 11.640625 -11.363281 11.765625 -11.179688 L 19.824219 -11.179688 C 19.917969 -11.363281 20.070312 -11.519531 20.226562 -11.671875 Z M 22.820312 -11.179688 L 30.570312 -11.179688 L 30.570312 -11.671875 L 22.449219 -11.671875 C 22.601562 -11.519531 22.726562 -11.363281 22.820312 -11.179688 Z M 8.617188 -10.589844 L 0.863281 -10.589844 L 0.863281 -10.066406 L 8.554688 -10.066406 C 8.554688 -10.25 8.585938 -10.4375 8.617188 -10.589844 Z M 19.640625 -10.589844 L 11.980469 -10.589844 L 12.074219 -10.066406 L 19.609375 -10.066406 L 19.609375 -10.191406 C 19.609375 -10.3125 19.640625 -10.46875 19.640625 -10.589844 Z M 23.035156 -10.191406 L 23.035156 -10.066406 L 30.570312 -10.066406 L 30.570312 -10.589844 L 23.003906 -10.589844 C 23.003906 -10.46875 23.035156 -10.3125 23.035156 -10.191406 Z M 8.554688 -9.542969 L 0.863281 -9.542969 L 0.863281 -8.984375 L 8.554688 -8.984375 Z M 19.609375 -9.542969 L 12.074219 -9.542969 L 12.074219 -8.984375 L 19.609375 -8.984375 Z M 30.570312 -9.542969 L 23.035156 -9.542969 L 23.035156 -8.984375 L 30.570312 -8.984375 Z M 8.554688 -8.460938 L 0.863281 -8.460938 L 0.863281 -7.90625 L 8.554688 -7.90625 Z M 19.609375 -8.460938 L 12.074219 -8.460938 L 12.074219 -7.90625 L 19.609375 -7.90625 Z M 30.570312 -8.460938 L 23.035156 -8.460938 L 23.035156 -7.90625 L 30.570312 -7.90625 Z M 8.554688 -7.378906 L 0.863281 -7.378906 L 0.863281 -6.792969 L 8.554688 -6.792969 Z M 19.609375 -7.378906 L 12.074219 -7.378906 L 12.074219 -6.792969 L 19.609375 -6.792969 Z M 30.570312 -7.378906 L 23.035156 -7.378906 L 23.035156 -6.792969 L 30.570312 -6.792969 Z M 8.554688 -6.332031 L 0.863281 -6.332031 L 0.863281 -5.710938 L 8.554688 -5.710938 Z M 19.609375 -6.332031 L 12.074219 -6.332031 L 12.074219 -5.710938 L 19.609375 -5.710938 Z M 30.570312 -6.332031 L 23.035156 -6.332031 L 23.035156 -5.710938 L 30.570312 -5.710938 Z M 8.554688 -5.25 L 0.863281 -5.25 L 0.863281 -4.601562 L 8.554688 -4.601562 Z M 19.609375 -5.25 L 12.074219 -5.25 L 12.074219 -4.601562 L 19.609375 -4.601562 Z M 30.570312 -5.25 L 23.035156 -5.25 L 23.035156 -4.601562 L 30.570312 -4.601562 Z M 8.554688 -4.199219 L 0.863281 -4.199219 L 0.863281 -3.519531 L 8.554688 -3.519531 Z M 19.609375 -4.199219 L 12.074219 -4.199219 L 12.074219 -3.519531 L 19.609375 -3.519531 Z M 30.570312 -4.199219 L 23.035156 -4.199219 L 23.035156 -3.519531 L 30.570312 -3.519531 Z M 8.554688 -3.117188 L 0.863281 -3.117188 L 0.863281 -2.410156 L 8.554688 -2.410156 Z M 19.609375 -3.117188 L 12.074219 -3.117188 L 12.074219 -2.410156 L 19.609375 -2.410156 Z M 30.570312 -3.117188 L 23.035156 -3.117188 L 23.035156 -2.410156 L 30.570312 -2.410156 Z M 8.554688 -2.070312 L 0.863281 -2.070312 L 0.863281 -1.328125 L 8.554688 -1.328125 Z M 19.609375 -2.070312 L 12.074219 -2.070312 L 12.074219 -1.328125 L 19.609375 -1.328125 Z M 30.570312 -2.070312 L 23.035156 -2.070312 L 23.035156 -1.328125 L 30.570312 -1.328125 Z M 8.554688 -0.988281 L 0.863281 -0.988281 L 0.863281 -0.246094 L 8.554688 -0.246094 Z M 19.609375 -0.988281 L 12.074219 -0.988281 L 12.074219 -0.246094 L 19.609375 -0.246094 Z M 30.570312 -0.988281 L 23.035156 -0.988281 L 23.035156 -0.246094 L 30.570312 -0.246094 Z M 30.570312 -0.988281 "/></g></g></g><g fill="#ffffff" fill-opacity="1"><g transform="translate(75.057394, 23.931243)"><g><path d="M 4.664062 -19.917969 L 17.445312 -19.917969 L 17.445312 -20.101562 L 6.175781 -20.101562 C 5.621094 -20.101562 5.125 -20.039062 4.664062 -19.917969 Z M 11.269531 -19.144531 L 2.964844 -19.144531 L 2.59375 -18.835938 L 10.5625 -18.835938 C 10.777344 -18.960938 11.023438 -19.050781 11.269531 -19.144531 Z M 11.886719 -18.835938 L 17.414062 -18.835938 L 17.414062 -19.144531 L 11.980469 -19.144531 L 12.074219 -18.960938 C 12.011719 -18.898438 11.949219 -18.867188 11.886719 -18.835938 Z M 9.574219 -18.0625 L 1.882812 -18.0625 C 1.820312 -17.941406 1.730469 -17.816406 1.667969 -17.722656 L 9.292969 -17.722656 C 9.386719 -17.847656 9.449219 -17.941406 9.574219 -18.0625 Z M 11.148438 -18.0625 L 10.960938 -17.722656 L 17.414062 -17.722656 L 17.414062 -18.0625 Z M 8.863281 -17.015625 L 1.328125 -17.015625 C 1.265625 -16.890625 1.234375 -16.765625 1.171875 -16.644531 L 8.707031 -16.644531 C 8.738281 -16.765625 8.800781 -16.890625 8.863281 -17.015625 Z M 17.414062 -17.015625 L 10.683594 -17.015625 L 10.589844 -16.644531 L 17.414062 -16.644531 Z M 8.523438 -15.933594 L 1.019531 -15.933594 C 0.988281 -15.808594 0.988281 -15.6875 0.957031 -15.5625 L 8.492188 -15.5625 C 8.492188 -15.6875 8.523438 -15.808594 8.523438 -15.933594 Z M 17.414062 -15.933594 L 10.53125 -15.933594 L 10.53125 -15.5625 L 17.414062 -15.5625 Z M 8.492188 -14.851562 L 0.957031 -14.851562 C 0.957031 -14.699219 0.957031 -14.574219 0.988281 -14.453125 L 8.554688 -14.453125 C 8.523438 -14.574219 8.523438 -14.699219 8.492188 -14.851562 Z M 10.589844 -14.851562 L 10.683594 -14.453125 L 17.414062 -14.453125 L 17.414062 -14.851562 Z M 8.707031 -13.804688 L 1.113281 -13.804688 C 1.140625 -13.648438 1.171875 -13.492188 1.234375 -13.371094 L 8.863281 -13.371094 C 8.800781 -13.492188 8.769531 -13.648438 8.707031 -13.804688 Z M 11.179688 -13.371094 L 17.414062 -13.371094 L 17.414062 -13.804688 L 10.929688 -13.804688 C 10.992188 -13.648438 11.085938 -13.492188 11.179688 -13.371094 Z M 9.234375 -12.722656 L 1.511719 -12.722656 C 1.574219 -12.566406 1.667969 -12.414062 1.789062 -12.257812 L 9.574219 -12.257812 C 9.449219 -12.414062 9.324219 -12.566406 9.234375 -12.722656 Z M 12.320312 -12.257812 L 17.414062 -12.257812 L 17.414062 -12.722656 L 11.734375 -12.722656 C 11.917969 -12.535156 12.105469 -12.382812 12.320312 -12.257812 Z M 10.128906 -11.671875 L 2.222656 -11.671875 C 2.378906 -11.488281 2.5625 -11.332031 2.75 -11.179688 L 10.808594 -11.179688 C 10.5625 -11.300781 10.3125 -11.488281 10.128906 -11.671875 Z M 17.414062 -11.394531 L 17.414062 -11.671875 L 13.679688 -11.671875 C 15.5 -11.117188 17.414062 -11.394531 17.414062 -11.394531 Z M 12.257812 -10.589844 L 3.613281 -10.589844 C 3.953125 -10.40625 4.292969 -10.25 4.664062 -10.160156 L 4.386719 -10.066406 L 13.308594 -10.066406 L 13.308594 -10.46875 C 12.9375 -10.46875 12.597656 -10.5 12.257812 -10.589844 Z M 11.425781 -9.542969 L 3.273438 -9.542969 C 2.996094 -9.355469 2.71875 -9.171875 2.46875 -8.984375 L 10.222656 -8.984375 C 10.589844 -9.203125 10.992188 -9.386719 11.425781 -9.542969 Z M 9.542969 -8.460938 L 1.945312 -8.460938 C 1.789062 -8.277344 1.636719 -8.089844 1.511719 -7.90625 L 9.078125 -7.90625 C 9.203125 -8.089844 9.355469 -8.277344 9.542969 -8.460938 Z M 12.351562 -7.90625 L 17.414062 -7.90625 L 17.445312 -8.460938 L 13.679688 -8.460938 C 13.214844 -8.335938 12.753906 -8.152344 12.351562 -7.90625 Z M 8.769531 -7.378906 L 1.203125 -7.378906 C 1.113281 -7.195312 1.019531 -6.980469 0.957031 -6.792969 L 8.523438 -6.792969 C 8.585938 -6.980469 8.675781 -7.195312 8.769531 -7.378906 Z M 11.148438 -6.792969 L 17.414062 -6.792969 L 17.414062 -7.378906 L 11.640625 -7.378906 C 11.457031 -7.195312 11.300781 -7.007812 11.148438 -6.792969 Z M 0.679688 -5.710938 L 8.398438 -5.710938 L 8.398438 -5.804688 C 8.398438 -5.992188 8.398438 -6.144531 8.429688 -6.332031 L 0.804688 -6.332031 C 0.742188 -6.113281 0.710938 -5.929688 0.679688 -5.710938 Z M 10.683594 -5.710938 L 17.414062 -5.710938 L 17.414062 -6.332031 L 10.871094 -6.332031 C 10.777344 -6.144531 10.746094 -5.929688 10.683594 -5.710938 Z M 8.398438 -5.25 L 0.617188 -5.25 L 0.617188 -4.601562 L 8.523438 -4.601562 C 8.460938 -4.816406 8.429688 -5.035156 8.398438 -5.25 Z M 10.53125 -4.601562 L 17.414062 -4.601562 L 17.414062 -5.25 L 10.589844 -5.25 C 10.5625 -5.035156 10.53125 -4.816406 10.53125 -4.601562 Z M 8.617188 -4.199219 L 0.648438 -4.199219 C 0.679688 -3.953125 0.742188 -3.738281 0.804688 -3.519531 L 8.863281 -3.519531 C 8.769531 -3.738281 8.675781 -3.953125 8.617188 -4.199219 Z M 10.589844 -3.519531 L 17.414062 -3.519531 L 17.414062 -4.199219 L 10.53125 -4.199219 C 10.53125 -3.953125 10.5625 -3.738281 10.589844 -3.519531 Z M 9.046875 -3.117188 L 0.957031 -3.117188 C 1.050781 -2.871094 1.171875 -2.625 1.328125 -2.410156 L 9.542969 -2.410156 C 9.355469 -2.625 9.203125 -2.871094 9.046875 -3.117188 Z M 10.683594 -3.117188 L 10.960938 -2.410156 L 17.414062 -2.410156 L 17.414062 -3.117188 Z M 9.820312 -2.070312 L 1.542969 -2.070312 C 1.730469 -1.789062 1.976562 -1.542969 2.222656 -1.328125 L 10.714844 -1.328125 C 10.40625 -1.511719 10.097656 -1.789062 9.820312 -2.070312 Z M 11.886719 -1.328125 L 17.414062 -1.328125 L 17.414062 -2.070312 L 11.179688 -2.070312 C 11.394531 -1.789062 11.609375 -1.542969 11.886719 -1.328125 Z M 11.425781 -0.988281 L 2.65625 -0.988281 C 3.148438 -0.648438 3.707031 -0.402344 4.355469 -0.246094 L 17.414062 -0.246094 L 17.414062 -0.988281 L 12.011719 -0.988281 L 11.949219 -0.832031 C 11.765625 -0.863281 11.578125 -0.925781 11.425781 -0.988281 Z M 11.425781 -0.988281 "/></g></g><g transform="translate(93.121623, 23.931243)"><g><path d="M 0.925781 -19.917969 L 8.738281 -19.917969 L 8.738281 -20.101562 L 0.925781 -20.101562 Z M 8.738281 -19.144531 L 0.925781 -19.144531 L 0.925781 -18.835938 L 8.738281 -18.835938 Z M 8.738281 -18.0625 L 0.925781 -18.0625 L 0.925781 -17.722656 L 8.738281 -17.722656 Z M 8.738281 -17.015625 L 0.925781 -17.015625 L 0.925781 -16.644531 L 8.738281 -16.644531 Z M 8.738281 -15.933594 L 0.925781 -15.933594 L 0.925781 -15.5625 L 8.738281 -15.5625 Z M 8.738281 -14.851562 L 0.925781 -14.851562 L 0.925781 -14.453125 L 8.738281 -14.453125 Z M 8.738281 -13.804688 L 0.925781 -13.804688 L 0.925781 -13.371094 L 8.738281 -13.371094 Z M 8.738281 -12.722656 L 0.925781 -12.722656 L 0.925781 -12.257812 L 8.738281 -12.257812 Z M 8.738281 -11.671875 L 0.925781 -11.671875 L 0.925781 -11.179688 L 8.738281 -11.179688 Z M 8.738281 -10.589844 L 0.925781 -10.589844 L 0.925781 -10.066406 L 8.738281 -10.066406 Z M 8.738281 -9.542969 L 0.925781 -9.542969 L 0.925781 -8.984375 L 8.738281 -8.984375 Z M 8.214844 -8.460938 L 0.925781 -8.460938 L 0.925781 -7.90625 L 6.546875 -7.90625 C 7.007812 -8.152344 7.597656 -8.367188 8.214844 -8.460938 Z M 9.046875 -7.90625 L 13.402344 -7.90625 L 13.402344 -8.429688 C 12.597656 -8.429688 10.652344 -8.523438 9.046875 -7.90625 Z M 5.804688 -7.378906 L 0.925781 -7.378906 L 0.925781 -6.792969 L 5.3125 -6.792969 C 5.433594 -7.007812 5.621094 -7.195312 5.804688 -7.378906 Z M 7.347656 -6.792969 L 13.402344 -6.792969 L 13.402344 -7.378906 L 8.027344 -7.378906 C 7.78125 -7.195312 7.566406 -7.007812 7.347656 -6.792969 Z M 5.035156 -6.332031 L 0.925781 -6.332031 L 0.925781 -5.710938 L 4.816406 -5.710938 C 4.878906 -5.929688 4.941406 -6.113281 5.035156 -6.332031 Z M 6.730469 -5.710938 L 13.402344 -5.710938 L 13.402344 -6.332031 L 7.039062 -6.332031 C 6.917969 -6.144531 6.824219 -5.929688 6.730469 -5.710938 Z M 4.722656 -5.25 L 0.925781 -5.25 L 0.925781 -4.601562 L 4.695312 -4.601562 C 4.695312 -4.816406 4.695312 -5.035156 4.722656 -5.25 Z M 6.546875 -4.601562 L 13.402344 -4.601562 L 13.402344 -5.25 L 6.609375 -5.25 C 6.578125 -5.035156 6.546875 -4.816406 6.546875 -4.601562 Z M 4.695312 -4.199219 L 0.925781 -4.199219 L 0.925781 -3.519531 L 4.753906 -3.519531 C 4.722656 -3.738281 4.695312 -3.953125 4.695312 -4.199219 Z M 6.609375 -3.519531 L 13.402344 -3.519531 L 13.402344 -4.199219 L 6.546875 -4.199219 C 6.546875 -3.953125 6.578125 -3.738281 6.609375 -3.519531 Z M 4.878906 -3.117188 L 0.925781 -3.117188 L 0.925781 -2.410156 L 5.1875 -2.410156 C 5.0625 -2.625 4.941406 -2.871094 4.878906 -3.117188 Z M 6.699219 -3.117188 L 6.980469 -2.410156 L 13.402344 -2.410156 L 13.402344 -3.117188 Z M 5.402344 -2.070312 L 0.925781 -2.070312 L 0.925781 -1.328125 L 6.238281 -1.328125 C 5.898438 -1.542969 5.621094 -1.789062 5.402344 -2.070312 Z M 7.90625 -1.328125 L 13.402344 -1.328125 L 13.402344 -2.070312 L 7.195312 -2.070312 C 7.410156 -1.789062 7.628906 -1.511719 7.90625 -1.328125 Z M 13.402344 -0.988281 L 8.429688 -0.988281 L 8.304688 -0.648438 C 7.78125 -0.710938 7.316406 -0.832031 6.949219 -0.988281 L 0.925781 -0.988281 L 0.925781 -0.246094 L 13.402344 -0.246094 Z M 13.402344 -0.988281 "/></g></g></g><g fill="#ffffff" fill-opacity="1"><g transform="translate(107.140706, 23.931243)"><g><path d="M 17.941406 -19.917969 L 17.941406 -20.101562 L 7.472656 -20.101562 C 6.546875 -20.101562 5.589844 -20.070312 4.695312 -19.917969 Z M 10.683594 -19.144531 L 2.378906 -19.144531 L 1.914062 -18.835938 L 9.972656 -18.835938 C 10.191406 -18.960938 10.4375 -19.050781 10.683594 -19.144531 Z M 13.183594 -19.082031 L 12.753906 -18.835938 L 17.941406 -18.835938 L 17.941406 -19.144531 L 13.15625 -19.144531 Z M 8.769531 -17.722656 L 9.015625 -18.0625 L 1.203125 -18.0625 C 1.113281 -17.941406 1.050781 -17.847656 0.988281 -17.722656 Z M 11.671875 -17.722656 L 17.941406 -17.722656 L 17.941406 -18.0625 L 11.886719 -18.0625 C 11.828125 -17.941406 11.734375 -17.847656 11.671875 -17.722656 Z M 8.460938 -17.015625 L 0.679688 -17.015625 C 0.617188 -16.890625 0.585938 -16.765625 0.554688 -16.644531 L 8.398438 -16.644531 C 8.429688 -16.765625 8.429688 -16.890625 8.460938 -17.015625 Z M 11.332031 -16.644531 L 17.941406 -16.644531 L 17.941406 -17.015625 L 11.394531 -17.015625 C 11.363281 -16.890625 11.363281 -16.765625 11.332031 -16.644531 Z M 8.367188 -15.933594 L 0.433594 -15.933594 C 0.402344 -15.808594 0.402344 -15.6875 0.402344 -15.5625 L 8.398438 -15.5625 C 8.398438 -15.6875 8.367188 -15.808594 8.367188 -15.933594 Z M 17.941406 -15.933594 L 11.300781 -15.933594 L 11.300781 -15.5625 L 17.941406 -15.5625 Z M 8.800781 -14.453125 L 8.617188 -14.851562 L 0.402344 -14.851562 C 0.433594 -14.699219 0.433594 -14.574219 0.433594 -14.453125 Z M 11.578125 -14.453125 L 17.941406 -14.453125 L 17.941406 -14.851562 L 11.425781 -14.851562 C 11.457031 -14.699219 11.519531 -14.574219 11.578125 -14.453125 Z M 9.265625 -13.804688 L 0.585938 -13.804688 C 0.617188 -13.648438 0.679688 -13.492188 0.742188 -13.371094 L 9.695312 -13.371094 C 9.542969 -13.492188 9.386719 -13.648438 9.265625 -13.804688 Z M 12.226562 -13.371094 L 17.941406 -13.371094 L 17.941406 -13.804688 L 11.886719 -13.804688 C 11.980469 -13.648438 12.105469 -13.492188 12.226562 -13.371094 Z M 10.5 -12.722656 L 1.082031 -12.722656 C 1.171875 -12.535156 1.296875 -12.414062 1.421875 -12.257812 L 11.179688 -12.257812 C 10.929688 -12.382812 10.714844 -12.566406 10.5 -12.722656 Z M 13.988281 -12.257812 L 17.972656 -12.257812 L 17.941406 -12.722656 L 13 -12.722656 C 13.308594 -12.535156 13.648438 -12.382812 13.988281 -12.257812 Z M 13.15625 -11.179688 L 12.195312 -11.671875 L 2.007812 -11.671875 C 2.191406 -11.488281 2.410156 -11.332031 2.625 -11.179688 Z M 14.265625 -10.589844 L 3.550781 -10.589844 C 3.859375 -10.40625 4.199219 -10.222656 4.507812 -10.066406 L 15.128906 -10.066406 C 14.851562 -10.25 14.574219 -10.40625 14.265625 -10.589844 Z M 15.871094 -9.542969 L 5.589844 -9.542969 L 6.667969 -8.984375 L 16.488281 -8.984375 C 16.304688 -9.171875 16.089844 -9.355469 15.871094 -9.542969 Z M 4.664062 -8.460938 L 0.863281 -8.460938 L 0.863281 -7.90625 L 5.992188 -7.90625 C 5.589844 -8.152344 5.125 -8.304688 4.664062 -8.460938 Z M 16.984375 -8.460938 L 7.597656 -8.460938 C 7.875 -8.277344 8.152344 -8.089844 8.398438 -7.90625 L 17.386719 -7.90625 C 17.261719 -8.089844 17.136719 -8.277344 16.984375 -8.460938 Z M 6.699219 -7.378906 L 0.863281 -7.378906 L 0.863281 -6.792969 L 7.195312 -6.792969 C 7.039062 -7.007812 6.886719 -7.195312 6.699219 -7.378906 Z M 17.664062 -7.378906 L 9.015625 -7.378906 C 9.203125 -7.195312 9.386719 -6.980469 9.542969 -6.792969 L 17.878906 -6.792969 C 17.816406 -6.980469 17.753906 -7.195312 17.664062 -7.378906 Z M 7.472656 -6.332031 L 0.863281 -6.332031 L 0.863281 -5.710938 L 7.71875 -5.710938 C 7.65625 -5.929688 7.566406 -6.144531 7.472656 -6.332031 Z M 18.003906 -6.332031 L 9.882812 -6.332031 C 10.003906 -6.113281 10.097656 -5.929688 10.191406 -5.710938 L 18.0625 -5.710938 C 18.0625 -5.929688 18.035156 -6.113281 18.003906 -6.332031 Z M 0.863281 -4.601562 L 7.90625 -4.601562 L 7.8125 -5.25 L 0.863281 -5.25 Z M 18.0625 -5.25 L 10.34375 -5.25 C 10.40625 -5.035156 10.4375 -4.816406 10.46875 -4.601562 L 18.003906 -4.601562 C 18.035156 -4.816406 18.0625 -5.035156 18.0625 -5.25 Z M 7.90625 -4.199219 L 0.863281 -4.199219 L 0.863281 -3.519531 L 7.84375 -3.519531 C 7.875 -3.707031 7.90625 -3.953125 7.90625 -4.199219 Z M 17.753906 -3.519531 L 17.941406 -4.199219 L 10.53125 -4.199219 L 10.53125 -4.136719 C 10.53125 -3.921875 10.5 -3.707031 10.46875 -3.519531 Z M 7.75 -3.117188 L 0.863281 -3.117188 L 0.863281 -2.410156 L 7.441406 -2.410156 C 7.566406 -2.625 7.6875 -2.839844 7.75 -3.117188 Z M 17.601562 -3.117188 L 10.375 -3.117188 C 10.3125 -2.839844 10.222656 -2.625 10.097656 -2.410156 L 17.230469 -2.410156 C 17.386719 -2.625 17.476562 -2.871094 17.601562 -3.117188 Z M 7.226562 -2.070312 L 0.863281 -2.070312 L 0.863281 -1.328125 L 6.390625 -1.328125 C 6.699219 -1.542969 7.007812 -1.761719 7.226562 -2.070312 Z M 17.015625 -2.070312 L 9.882812 -2.070312 C 9.632812 -1.730469 9.324219 -1.511719 8.953125 -1.328125 L 16.335938 -1.328125 C 16.582031 -1.542969 16.828125 -1.789062 17.015625 -2.070312 Z M 15.902344 -0.988281 L 7.996094 -0.988281 C 7.441406 -0.863281 6.824219 -0.804688 6.175781 -0.804688 L 6.113281 -0.988281 L 0.863281 -0.988281 L 0.894531 -0.246094 L 14.296875 -0.246094 C 14.914062 -0.402344 15.441406 -0.679688 15.902344 -0.988281 Z M 15.902344 -0.988281 "/></g></g></g><g fill="#ffffff" fill-opacity="1"><g transform="translate(125.699, 23.931243)"><g><path d="M 8.089844 -20.195312 L 7.195312 -19.917969 L 14.265625 -19.917969 L 13.371094 -20.195312 Z M 7.84375 -19.144531 L 5.496094 -19.144531 C 5.34375 -19.050781 5.1875 -18.929688 5.003906 -18.835938 L 7.226562 -18.835938 C 7.441406 -18.960938 7.628906 -19.050781 7.84375 -19.144531 Z M 15.933594 -19.144531 L 8.429688 -19.144531 L 8.429688 -18.835938 L 16.457031 -18.835938 C 16.273438 -18.929688 16.117188 -19.050781 15.933594 -19.144531 Z M 3.582031 -17.722656 L 5.929688 -17.722656 C 6.019531 -17.847656 6.113281 -17.941406 6.238281 -18.0625 L 3.953125 -18.0625 C 3.828125 -17.941406 3.707031 -17.816406 3.582031 -17.722656 Z M 17.476562 -18.0625 L 8.429688 -18.0625 L 8.429688 -17.722656 L 17.847656 -17.722656 C 17.722656 -17.816406 17.601562 -17.941406 17.476562 -18.0625 Z M 2.902344 -17.015625 L 2.5625 -16.644531 L 5.1875 -16.644531 C 5.25 -16.765625 5.3125 -16.890625 5.402344 -17.015625 Z M 18.867188 -16.644531 L 18.558594 -17.015625 L 8.429688 -17.015625 L 8.429688 -16.644531 Z M 1.789062 -15.5625 L 4.722656 -15.5625 C 4.785156 -15.6875 4.816406 -15.808594 4.878906 -15.933594 L 2.039062 -15.933594 C 1.976562 -15.808594 1.882812 -15.6875 1.789062 -15.5625 Z M 19.390625 -15.933594 L 8.429688 -15.933594 L 8.429688 -15.5625 L 19.640625 -15.5625 C 19.578125 -15.6875 19.484375 -15.808594 19.390625 -15.933594 Z M 1.390625 -14.851562 L 1.203125 -14.453125 L 4.476562 -14.453125 C 4.507812 -14.574219 4.507812 -14.699219 4.539062 -14.851562 Z M 20.039062 -14.851562 L 8.429688 -14.851562 L 8.429688 -14.453125 L 20.257812 -14.453125 C 20.195312 -14.574219 20.101562 -14.699219 20.039062 -14.851562 Z M 0.773438 -13.371094 L 4.414062 -13.371094 L 4.414062 -13.804688 L 0.925781 -13.804688 C 0.863281 -13.648438 0.832031 -13.492188 0.773438 -13.371094 Z M 20.503906 -13.804688 L 8.429688 -13.804688 L 8.429688 -13.371094 L 20.65625 -13.371094 C 20.628906 -13.492188 20.566406 -13.648438 20.503906 -13.804688 Z M 0.464844 -12.257812 L 4.507812 -12.257812 C 4.476562 -12.414062 4.476562 -12.566406 4.445312 -12.722656 L 0.585938 -12.722656 C 0.523438 -12.566406 0.492188 -12.414062 0.464844 -12.257812 Z M 8.429688 -12.257812 L 20.96875 -12.257812 L 20.875 -12.722656 L 8.429688 -12.722656 Z M 0.308594 -11.179688 L 4.785156 -11.179688 C 4.722656 -11.332031 4.664062 -11.488281 4.632812 -11.671875 L 0.371094 -11.671875 C 0.339844 -11.488281 0.308594 -11.332031 0.308594 -11.179688 Z M 9.574219 -11.671875 L 8.429688 -11.671875 L 8.429688 -11.179688 L 8.707031 -11.179688 C 8.953125 -11.394531 9.265625 -11.578125 9.574219 -11.671875 Z M 21.089844 -11.671875 L 10.839844 -11.671875 C 11.179688 -11.578125 11.488281 -11.394531 11.734375 -11.179688 L 21.152344 -11.179688 C 21.121094 -11.332031 21.121094 -11.488281 21.089844 -11.671875 Z M 5.003906 -10.589844 L 0.246094 -10.589844 L 0.246094 -10.066406 L 5.25 -10.066406 C 5.15625 -10.222656 5.0625 -10.40625 5.003906 -10.589844 Z M 21.183594 -10.589844 L 12.195312 -10.589844 C 12.289062 -10.40625 12.351562 -10.25 12.414062 -10.066406 L 21.214844 -10.066406 C 21.214844 -10.222656 21.214844 -10.40625 21.183594 -10.589844 Z M 0.308594 -8.984375 L 6.050781 -8.984375 C 5.898438 -9.171875 5.710938 -9.324219 5.589844 -9.542969 L 0.246094 -9.542969 C 0.277344 -9.355469 0.277344 -9.171875 0.308594 -8.984375 Z M 21.183594 -9.542969 L 12.476562 -9.542969 L 12.476562 -9.511719 C 12.476562 -9.324219 12.445312 -9.140625 12.414062 -8.984375 L 21.152344 -8.984375 C 21.152344 -9.171875 21.183594 -9.355469 21.183594 -9.542969 Z M 6.609375 -8.460938 L 0.371094 -8.460938 L 0.464844 -7.90625 L 7.441406 -7.90625 C 7.132812 -8.058594 6.855469 -8.246094 6.609375 -8.460938 Z M 21.089844 -8.460938 L 12.226562 -8.460938 C 12.105469 -8.246094 11.980469 -8.058594 11.796875 -7.90625 L 20.96875 -7.90625 C 20.996094 -8.089844 21.058594 -8.277344 21.089844 -8.460938 Z M 0.585938 -7.378906 L 0.773438 -6.792969 L 20.6875 -6.792969 C 20.75 -6.980469 20.8125 -7.164062 20.84375 -7.378906 L 10.960938 -7.378906 C 10.746094 -7.289062 10.46875 -7.257812 10.222656 -7.257812 C 9.757812 -7.257812 9.355469 -7.289062 8.953125 -7.378906 Z M 1.171875 -5.710938 L 20.257812 -5.710938 C 20.347656 -5.898438 20.441406 -6.113281 20.503906 -6.332031 L 0.925781 -6.332031 C 1.019531 -6.113281 1.082031 -5.898438 1.171875 -5.710938 Z M 1.789062 -4.601562 L 19.671875 -4.601562 L 20.039062 -5.25 L 1.421875 -5.25 C 1.511719 -5.035156 1.667969 -4.816406 1.789062 -4.601562 Z M 2.53125 -3.519531 L 18.898438 -3.519531 C 19.082031 -3.738281 19.269531 -3.953125 19.421875 -4.199219 L 2.039062 -4.199219 C 2.191406 -3.953125 2.378906 -3.738281 2.53125 -3.519531 Z M 3.582031 -2.410156 L 17.878906 -2.410156 C 18.125 -2.625 18.34375 -2.871094 18.558594 -3.117188 L 2.871094 -3.117188 C 3.089844 -2.871094 3.335938 -2.625 3.582031 -2.410156 Z M 4.941406 -1.328125 L 16.519531 -1.328125 C 16.859375 -1.542969 17.199219 -1.789062 17.507812 -2.070312 L 3.921875 -2.070312 C 4.230469 -1.789062 4.601562 -1.542969 4.941406 -1.328125 Z M 7.039062 -0.246094 L 14.421875 -0.246094 C 14.976562 -0.433594 15.46875 -0.679688 15.964844 -0.988281 L 5.464844 -0.988281 C 5.960938 -0.679688 6.484375 -0.433594 7.039062 -0.246094 Z M 10.746094 0.433594 C 11.640625 0.433594 12.535156 0.308594 13.371094 0.09375 L 8.089844 0.09375 C 8.953125 0.308594 9.820312 0.433594 10.746094 0.433594 Z M 10.746094 0.433594 "/></g></g></g><g fill="#ffffff" fill-opacity="1"><g transform="translate(147.221687, 23.931243)"><g><path d="M 16.953125 -19.917969 L 16.953125 -20.070312 L 0.925781 -20.070312 L 0.925781 -19.917969 Z M 10.375 -19.144531 L 0.925781 -19.144531 L 0.925781 -18.835938 L 9.632812 -18.835938 C 9.882812 -18.960938 10.128906 -19.050781 10.375 -19.144531 Z M 11.085938 -18.929688 L 10.929688 -18.835938 L 16.921875 -18.835938 L 16.921875 -19.144531 L 10.992188 -19.144531 Z M 8.367188 -17.722656 L 8.644531 -18.0625 L 0.925781 -18.0625 L 0.925781 -17.722656 Z M 9.941406 -17.722656 L 16.921875 -17.722656 L 16.921875 -18.0625 L 10.160156 -18.0625 C 10.097656 -17.941406 10.003906 -17.847656 9.941406 -17.722656 Z M 7.9375 -17.015625 L 0.925781 -17.015625 L 0.925781 -16.644531 L 7.78125 -16.644531 C 7.8125 -16.765625 7.875 -16.890625 7.9375 -17.015625 Z M 9.511719 -16.644531 L 16.921875 -16.644531 L 16.921875 -17.015625 L 9.632812 -17.015625 C 9.574219 -16.890625 9.542969 -16.765625 9.511719 -16.644531 Z M 0.925781 -15.5625 L 7.472656 -15.5625 L 7.566406 -15.933594 L 0.925781 -15.933594 Z M 9.355469 -15.5625 L 16.921875 -15.5625 L 16.921875 -15.933594 L 9.386719 -15.933594 C 9.386719 -15.808594 9.355469 -15.6875 9.355469 -15.5625 Z M 7.410156 -14.851562 L 0.925781 -14.851562 L 0.925781 -14.453125 L 7.410156 -14.453125 Z M 9.480469 -14.453125 L 16.921875 -14.453125 L 16.921875 -14.851562 L 9.417969 -14.851562 C 9.417969 -14.730469 9.449219 -14.574219 9.480469 -14.453125 Z M 7.472656 -13.804688 L 0.925781 -13.804688 L 0.925781 -13.371094 L 7.535156 -13.371094 C 7.503906 -13.492188 7.503906 -13.648438 7.472656 -13.804688 Z M 9.882812 -13.371094 L 16.921875 -13.371094 L 16.921875 -13.804688 L 9.695312 -13.804688 C 9.757812 -13.648438 9.789062 -13.492188 9.882812 -13.371094 Z M 0.925781 -12.257812 L 7.9375 -12.257812 L 7.75 -12.722656 L 0.925781 -12.722656 Z M 10.777344 -12.257812 L 16.921875 -12.257812 L 16.921875 -12.722656 L 10.3125 -12.722656 C 10.4375 -12.535156 10.621094 -12.382812 10.777344 -12.257812 Z M 8.277344 -11.671875 L 0.925781 -11.671875 L 0.925781 -11.179688 L 8.675781 -11.179688 C 8.554688 -11.332031 8.398438 -11.488281 8.277344 -11.671875 Z M 12.96875 -11.179688 L 16.921875 -11.179688 L 16.921875 -11.671875 L 11.671875 -11.671875 C 12.074219 -11.457031 12.535156 -11.300781 12.96875 -11.179688 Z M 9.324219 -10.589844 L 0.925781 -10.589844 L 0.925781 -10.066406 L 10.28125 -10.066406 C 9.941406 -10.191406 9.601562 -10.375 9.324219 -10.589844 Z M 15.625 -9.542969 L 0.925781 -9.542969 L 0.925781 -8.984375 L 15.625 -8.984375 Z M 12.042969 -8.304688 L 15.625 -8.304688 L 15.625 -8.460938 L 0.925781 -8.460938 L 0.925781 -7.90625 L 10.5 -7.90625 C 10.929688 -8.152344 11.457031 -8.304688 12.042969 -8.304688 Z M 9.820312 -7.378906 L 0.925781 -7.378906 L 0.925781 -6.792969 L 9.324219 -6.792969 C 9.449219 -7.007812 9.632812 -7.195312 9.820312 -7.378906 Z M 9.046875 -6.332031 L 0.925781 -6.332031 L 0.925781 -5.710938 L 8.800781 -5.710938 C 8.863281 -5.929688 8.953125 -6.113281 9.046875 -6.332031 Z M 0.925781 -4.601562 L 8.585938 -4.601562 L 8.675781 -5.25 L 0.925781 -5.25 Z M 8.585938 -4.199219 L 0.925781 -4.199219 L 0.925781 -3.519531 L 8.585938 -3.519531 Z M 8.585938 -3.117188 L 0.925781 -3.117188 L 0.925781 -2.410156 L 8.585938 -2.410156 Z M 8.585938 -2.070312 L 0.925781 -2.070312 L 0.925781 -1.328125 L 8.585938 -1.328125 Z M 8.585938 -0.988281 L 0.925781 -0.988281 L 0.925781 -0.246094 L 8.585938 -0.246094 Z M 8.585938 -0.988281 "/></g></g></g><g fill="#ffffff" fill-opacity="1"><g transform="translate(164.853612, 23.931243)"><g><path d="M 0.804688 -19.917969 L 15.996094 -19.917969 L 15.996094 -20.070312 L 0.804688 -20.070312 Z M 5.867188 -19.144531 L 0.804688 -19.144531 L 0.804688 -18.835938 L 5.773438 -18.835938 Z M 7.132812 -18.835938 L 15.996094 -18.835938 L 15.996094 -19.144531 L 6.050781 -19.144531 C 6.453125 -19.050781 6.824219 -18.960938 7.132812 -18.835938 Z M 7.070312 -17.722656 L 6.792969 -18.0625 L 0.804688 -18.0625 L 0.804688 -17.722656 Z M 8.738281 -17.722656 L 15.996094 -17.722656 L 15.996094 -18.0625 L 8.429688 -18.0625 C 8.523438 -17.941406 8.644531 -17.816406 8.738281 -17.722656 Z M 0.804688 -16.644531 L 7.503906 -16.644531 L 7.410156 -17.015625 L 0.804688 -17.015625 Z M 9.324219 -16.644531 L 15.996094 -16.644531 L 15.996094 -17.015625 L 9.171875 -17.015625 C 9.234375 -16.890625 9.265625 -16.765625 9.324219 -16.644531 Z M 0.804688 -15.5625 L 7.597656 -15.5625 L 7.597656 -15.933594 L 0.804688 -15.933594 Z M 9.449219 -15.5625 L 15.996094 -15.5625 L 15.996094 -15.933594 L 9.449219 -15.933594 C 9.480469 -15.808594 9.449219 -15.6875 9.449219 -15.5625 Z M 7.503906 -14.851562 L 0.804688 -14.851562 L 0.804688 -14.453125 L 7.378906 -14.453125 C 7.441406 -14.574219 7.472656 -14.699219 7.503906 -14.851562 Z M 9.355469 -14.851562 L 9.265625 -14.453125 L 15.996094 -14.453125 L 15.996094 -14.851562 Z M 7.101562 -13.804688 L 0.804688 -13.804688 L 0.804688 -13.371094 L 6.792969 -13.371094 C 6.886719 -13.492188 7.007812 -13.648438 7.101562 -13.804688 Z M 8.675781 -13.371094 L 15.996094 -13.371094 L 15.996094 -13.804688 L 8.953125 -13.804688 C 8.894531 -13.648438 8.800781 -13.492188 8.675781 -13.371094 Z M 6.050781 -12.722656 L 0.804688 -12.722656 L 0.804688 -12.257812 L 5.09375 -12.257812 C 5.433594 -12.382812 5.742188 -12.535156 6.050781 -12.722656 Z M 7.566406 -12.257812 L 15.996094 -12.257812 L 15.996094 -12.722656 L 8.121094 -12.722656 C 7.964844 -12.535156 7.75 -12.382812 7.566406 -12.257812 Z M 4.847656 -11.363281 L 4.847656 -11.179688 L 12.445312 -11.179688 L 12.445312 -11.671875 L 6.390625 -11.671875 C 5.929688 -11.488281 5.402344 -11.394531 4.847656 -11.363281 Z M 12.445312 -10.589844 L 4.847656 -10.589844 L 4.847656 -10.066406 L 12.445312 -10.066406 Z M 12.445312 -9.542969 L 4.847656 -9.542969 L 4.847656 -8.984375 L 12.445312 -8.984375 Z M 12.445312 -8.460938 L 4.847656 -8.460938 L 4.847656 -7.90625 L 12.445312 -7.90625 Z M 12.445312 -7.378906 L 4.847656 -7.378906 L 4.847656 -6.792969 L 12.445312 -6.792969 Z M 12.445312 -6.332031 L 4.847656 -6.332031 L 4.847656 -5.710938 L 12.445312 -5.710938 Z M 12.445312 -5.25 L 4.847656 -5.25 L 4.847656 -4.601562 L 12.445312 -4.601562 Z M 12.445312 -4.199219 L 4.847656 -4.199219 L 4.847656 -3.519531 L 12.445312 -3.519531 Z M 12.445312 -3.117188 L 4.847656 -3.117188 L 4.847656 -2.410156 L 12.445312 -2.410156 Z M 12.445312 -2.070312 L 4.847656 -2.070312 L 4.847656 -1.328125 L 12.445312 -1.328125 Z M 12.445312 -0.988281 L 4.847656 -0.988281 L 4.878906 -0.246094 L 12.476562 -0.246094 Z M 12.445312 -0.988281 "/></g></g></g></svg>