<svg xmlns="http://www.w3.org/2000/svg" xmlns:xlink="http://www.w3.org/1999/xlink" width="40" zoomAndPan="magnify" viewBox="0 0 30 30.000001" height="40" preserveAspectRatio="xMidYMid meet" version="1.0"><defs><clipPath id="e012ee7645"><path d="M 0.484375 0 L 29.515625 0 L 29.515625 29.03125 L 0.484375 29.03125 Z M 0.484375 0 " clip-rule="nonzero"/></clipPath></defs><g clip-path="url(#e012ee7645)"><path fill="#ffffff" d="M 0.484375 0 L 29.515625 0 L 29.515625 29.03125 L 0.484375 29.03125 Z M 0.484375 0 " fill-opacity="1" fill-rule="nonzero"/><path fill="#ffffff" d="M 0.484375 0 L 29.515625 0 L 29.515625 29.03125 L 0.484375 29.03125 Z M 0.484375 0 " fill-opacity="1" fill-rule="nonzero"/><path fill="#f1f2f2" d="M 21.523438 20.695312 L 20.621094 19.78125 L 18.824219 17.953125 L 15.859375 14.96875 C 15.902344 14.890625 15.933594 14.808594 15.953125 14.71875 L 17.578125 14.710938 L 19.511719 14.6875 L 20.15625 14.675781 C 21.875 14.648438 23.59375 14.601562 25.3125 14.515625 C 23.59375 14.429688 21.875 14.386719 20.15625 14.355469 L 19.511719 14.34375 L 17.578125 14.320312 L 15.953125 14.316406 C 15.933594 14.226562 15.902344 14.140625 15.859375 14.0625 L 18.824219 11.082031 L 20.621094 9.253906 L 21.523438 8.335938 L 22.417969 7.417969 C 24.808594 4.96875 27.183594 2.503906 29.515625 0 C 27.011719 2.335938 24.546875 4.710938 22.097656 7.097656 L 21.179688 7.992188 L 20.265625 8.894531 L 18.433594 10.691406 L 15.453125 13.65625 C 15.375 13.613281 15.289062 13.582031 15.203125 13.5625 L 15.195312 11.9375 L 15.171875 10.003906 L 15.160156 9.359375 C 15.128906 7.640625 15.085938 5.925781 15 4.207031 C 14.914062 5.925781 14.871094 7.640625 14.839844 9.359375 L 14.828125 10.003906 L 14.804688 11.9375 L 14.796875 13.5625 C 14.710938 13.582031 14.625 13.613281 14.546875 13.65625 L 11.566406 10.691406 L 9.738281 8.894531 L 8.820312 7.992188 L 7.902344 7.097656 C 5.453125 4.707031 2.988281 2.332031 0.484375 0 C 2.816406 2.503906 5.191406 4.96875 7.582031 7.417969 L 8.476562 8.335938 L 9.375 9.253906 L 11.175781 11.082031 L 14.140625 14.0625 C 14.097656 14.140625 14.066406 14.226562 14.046875 14.316406 L 12.421875 14.320312 C 11.5625 14.332031 10.703125 14.335938 9.84375 14.355469 C 8.125 14.386719 6.40625 14.429688 4.6875 14.515625 C 6.40625 14.601562 8.125 14.644531 9.84375 14.675781 C 10.703125 14.695312 11.5625 14.699219 12.421875 14.710938 L 14.046875 14.71875 C 14.066406 14.808594 14.097656 14.890625 14.140625 14.96875 L 11.175781 17.949219 L 9.375 19.78125 L 8.476562 20.695312 L 7.582031 21.613281 C 5.191406 24.0625 2.816406 26.527344 0.484375 29.03125 C 2.988281 26.699219 5.453125 24.324219 7.902344 21.933594 L 8.820312 21.039062 L 9.738281 20.140625 L 11.566406 18.339844 L 14.546875 15.375 C 14.625 15.417969 14.710938 15.449219 14.796875 15.46875 L 14.804688 17.09375 C 14.816406 17.953125 14.820312 18.8125 14.839844 19.671875 C 14.871094 21.390625 14.914062 23.109375 15 24.828125 C 15.085938 23.109375 15.128906 21.390625 15.160156 19.671875 C 15.179688 18.8125 15.183594 17.953125 15.195312 17.09375 L 15.203125 15.46875 C 15.289062 15.449219 15.375 15.417969 15.453125 15.375 L 18.433594 18.339844 L 20.265625 20.140625 L 21.179688 21.039062 L 22.097656 21.933594 C 24.546875 24.324219 27.011719 26.699219 29.515625 29.03125 C 27.183594 26.527344 24.808594 24.0625 22.417969 21.613281 Z M 21.523438 20.695312 " fill-opacity="1" fill-rule="nonzero"/></g></svg>